<svg xmlns="http://www.w3.org/2000/svg" xmlns:xlink="http://www.w3.org/1999/xlink" width="30" height="30" viewBox="0 0 30 30"><defs><style>.a{fill:none;}.b{clip-path:url(#a);}.c{fill:#fff;}</style><clipPath id="a"><rect class="a" width="30" height="30"/></clipPath></defs><g class="b" transform="translate(30) rotate(90)"><path class="c" d="M0,28.427V1.573A1.8,1.8,0,0,0,.052,1.4,1.6,1.6,0,0,1,1.4.052L1.573,0H28.427L28.6.052A1.594,1.594,0,0,1,29.948,1.4,1.8,1.8,0,0,0,30,1.573V28.448a1.156,1.156,0,0,0-.052.146,1.6,1.6,0,0,1-1.354,1.354L28.438,30H20.719V18.385h3.667c.24,0,.24,0,.26-.24q.115-.937.24-1.885c.094-.75.2-1.5.292-2.25.021-.167.021-.167-.156-.167H20.74c0-.042-.01-.073-.01-.1,0-.958-.01-1.906,0-2.865a4.25,4.25,0,0,1,.083-.781,1.415,1.415,0,0,1,1.146-1.2,5.333,5.333,0,0,1,1.01-.115c.75-.021,1.49-.01,2.24,0,.125,0,.156-.031.156-.156-.01-.687,0-1.375,0-2.062V4.812c0-.1-.031-.135-.135-.146l-.542-.042c-.979-.031-1.969-.083-2.948-.094A6.2,6.2,0,0,0,19.25,5a4.917,4.917,0,0,0-2.625,2.479,6.4,6.4,0,0,0-.6,2.708c-.021,1.167-.01,2.344-.01,3.51v.135H12.24c-.125,0-.167.031-.167.156q.01,2.115,0,4.229c0,.156,0,.156.167.156H16V29.813a1.132,1.132,0,0,1-.01.188H1.552l-.146-.052A1.6,1.6,0,0,1,.052,28.6,1.138,1.138,0,0,0,0,28.427"/></g></svg>