<svg xmlns="http://www.w3.org/2000/svg" xmlns:xlink="http://www.w3.org/1999/xlink" width="21.067" height="21.067" viewBox="0 0 21.067 21.067"><defs><style>.a{fill:none;}.b{clip-path:url(#a);}</style><clipPath id="a"><rect class="a" width="21.067" height="21.067"/></clipPath></defs><g class="b" transform="translate(21.067) rotate(90)"><path d="M0,19.962V1.1A1.266,1.266,0,0,0,.037.98,1.126,1.126,0,0,1,.98.037L1.1,0H19.962l.124.037A1.119,1.119,0,0,1,21.03.98a1.266,1.266,0,0,0,.037.124V19.977a.812.812,0,0,0-.037.1,1.126,1.126,0,0,1-.951.951l-.11.037h-5.42V12.911h2.575c.168,0,.168,0,.183-.168q.08-.658.168-1.324c.066-.527.139-1.053.2-1.58.015-.117.015-.117-.11-.117H14.564c0-.029-.007-.051-.007-.073,0-.673-.007-1.339,0-2.012a2.985,2.985,0,0,1,.059-.549.994.994,0,0,1,.8-.841,3.745,3.745,0,0,1,.71-.08c.527-.015,1.046-.007,1.573,0,.088,0,.11-.022.11-.11-.007-.483,0-.966,0-1.448V3.379c0-.073-.022-.1-.1-.1l-.38-.029c-.688-.022-1.383-.059-2.07-.066a4.352,4.352,0,0,0-1.748.329,3.453,3.453,0,0,0-1.843,1.741,4.491,4.491,0,0,0-.424,1.9c-.015.819-.007,1.646-.007,2.465v.1H8.595c-.088,0-.117.022-.117.11q.007,1.485,0,2.97c0,.11,0,.11.117.11h2.641v8.032a.8.8,0,0,1-.007.132H1.09l-.1-.037a1.126,1.126,0,0,1-.951-.944A.8.8,0,0,0,0,19.962"/></g></svg>