<svg xmlns="http://www.w3.org/2000/svg" xmlns:xlink="http://www.w3.org/1999/xlink" width="30.05" height="30" viewBox="0 0 30.05 30"><defs><style>.a{fill:none;}.b{clip-path:url(#a);}.c{fill:#fff;}</style><clipPath id="a"><rect class="a" width="30" height="30.05"/></clipPath></defs><g class="b" transform="translate(30.05) rotate(90)"><path class="c" d="M15.066,7.229a7.624,7.624,0,1,0,7.624,7.624,7.624,7.624,0,0,0-7.624-7.624m0,12.762a4.972,4.972,0,1,1,4.972-4.972,4.972,4.972,0,0,1-4.972,4.972M24.845,6.9a1.823,1.823,0,1,1-1.823-1.823A1.823,1.823,0,0,1,24.845,6.9m5.138,1.823a8.95,8.95,0,0,0-2.486-6.3A8.95,8.95,0,0,0,21.2.1H8.768a8.95,8.95,0,0,0-6.3,2.32,8.95,8.95,0,0,0-2.32,6.3c-.166,2.486-.166,9.945,0,12.431a8.95,8.95,0,0,0,2.486,6.3,8.95,8.95,0,0,0,6.3,2.486H21.365a8.95,8.95,0,0,0,6.3-2.486,8.95,8.95,0,0,0,2.486-6.3c.166-2.486.166-9.945,0-12.431M27,23.8a5.138,5.138,0,0,1-2.818,2.818c-1.989.829-6.63.663-8.785.663s-6.961.166-8.785-.663A5.138,5.138,0,0,1,3.3,23.8c-.829-1.989-.663-6.63-.663-8.785S2.47,8.058,3.3,6.069A5.138,5.138,0,0,1,6.116,3.251c1.989-.829,6.63-.663,8.785-.663s6.961-.166,8.785.663A5.138,5.138,0,0,1,26.5,6.069c.829,1.989.663,6.63.663,8.785s.166,6.961-.663,8.785" transform="translate(0.016 0.064)"/></g></svg>