<svg xmlns="http://www.w3.org/2000/svg" xmlns:xlink="http://www.w3.org/1999/xlink" width="21.102" height="21.067" viewBox="0 0 21.102 21.067"><defs><style>.a{fill:none;}.b{clip-path:url(#a);}</style><clipPath id="a"><rect class="a" width="21.067" height="21.102"/></clipPath></defs><g class="b" transform="translate(21.102) rotate(90)"><path d="M10.563,5.008a5.354,5.354,0,1,0,5.354,5.354,5.354,5.354,0,0,0-5.354-5.354m0,8.962a3.492,3.492,0,1,1,3.492-3.492,3.492,3.492,0,0,1-3.492,3.492M17.43,4.775a1.28,1.28,0,1,1-1.28-1.28,1.28,1.28,0,0,1,1.28,1.28m3.608,1.28a6.285,6.285,0,0,0-1.746-4.423A6.285,6.285,0,0,0,14.869,0H6.14A6.285,6.285,0,0,0,1.717,1.633,6.285,6.285,0,0,0,.087,6.055c-.116,1.746-.116,6.983,0,8.729a6.285,6.285,0,0,0,1.746,4.423,6.285,6.285,0,0,0,4.423,1.746h8.729a6.285,6.285,0,0,0,4.423-1.746,6.285,6.285,0,0,0,1.746-4.423c.116-1.746.116-6.983,0-8.729M18.943,16.647a3.608,3.608,0,0,1-1.979,1.979c-1.4.582-4.656.466-6.169.466s-4.888.116-6.169-.466A3.608,3.608,0,0,1,2.3,16.647c-.582-1.4-.466-4.656-.466-6.169S1.717,5.59,2.3,4.193A3.608,3.608,0,0,1,4.277,2.215c1.4-.582,4.656-.466,6.169-.466s4.888-.116,6.169.466a3.608,3.608,0,0,1,1.979,1.979c.582,1.4.466,4.656.466,6.169s.116,4.888-.466,6.169" transform="translate(0.029 0.113)"/></g></svg>