<svg xmlns="http://www.w3.org/2000/svg" xmlns:xlink="http://www.w3.org/1999/xlink" width="20" height="12.005" viewBox="0 0 20 12.005"><defs><style>.a{fill:none;}.b{clip-path:url(#a);}.c{fill:#fff;}</style><clipPath id="a"><rect class="a" width="20" height="12.005"/></clipPath></defs><g class="b"><path class="c" d="M20,11.429l-.1-.072-5.69-4.274L20,3.217ZM.336,0H19.688a.336.336,0,0,1,.336.336v1.08L12.509,6.435h0l-2.5,1.657L0,1.152V.336A.336.336,0,0,1,.336,0M.1,11.357l-.1.072V2.977L5.882,7.035ZM1.7,12,7.179,7.923,9.58,9.6l.192.1H10.2l.192-.1,2.473-1.633L18.3,12Z" transform="translate(0 0)"/></g></svg>