<svg xmlns="http://www.w3.org/2000/svg" xmlns:xlink="http://www.w3.org/1999/xlink" width="13.04" height="20" viewBox="0 0 13.04 20"><defs><style>.a{fill:none;}.b{clip-path:url(#a);}.c{fill:#fff;}</style><clipPath id="a"><rect class="a" width="13.04" height="20"/></clipPath></defs><g class="b"><path class="c" d="M11.44,0H1.6A1.6,1.6,0,0,0,0,1.6V17.32A2.68,2.68,0,0,0,2.68,20h7.68a2.68,2.68,0,0,0,2.68-2.68V1.6A1.6,1.6,0,0,0,11.44,0M4.96,1.56H8.04a.48.48,0,0,1,0,.92H4.96a.48.48,0,1,1,0-.92M6.52,18.28a.92.92,0,1,1,.92-.92.92.92,0,0,1-.92.92m5.2-3.56H1.28V4.04H11.72Z" transform="translate(0)"/></g></svg>