<svg xmlns="http://www.w3.org/2000/svg" xmlns:xlink="http://www.w3.org/1999/xlink" width="24.377" height="30" viewBox="0 0 24.377 30"><defs><style>.a{fill:none;}.b{clip-path:url(#a);}.c{fill:#fff;}</style><clipPath id="a"><rect class="a" width="30" height="24.377"/></clipPath></defs><g class="b" transform="translate(24.377) rotate(90)"><path class="c" d="M26.957,6.117v.87A17.391,17.391,0,0,1,9.42,24.378,17.391,17.391,0,0,1,0,21.624H1.449A12.319,12.319,0,0,0,9.13,19.016a6.232,6.232,0,0,1-5.8-4.2H6.087A6.087,6.087,0,0,1,1.159,8.726h0a6.232,6.232,0,0,0,2.754.725A6.232,6.232,0,0,1,2.029,1.19,17.536,17.536,0,0,0,14.783,7.566a6.956,6.956,0,0,1-.145-1.449,6.087,6.087,0,0,1,10.58-4.2A12.174,12.174,0,0,0,29.13.465,6.087,6.087,0,0,1,26.377,3.8,12.319,12.319,0,0,0,30,2.929a13.188,13.188,0,0,1-3.043,3.188" transform="translate(0 -0.03)"/></g></svg>