<svg xmlns="http://www.w3.org/2000/svg" xmlns:xlink="http://www.w3.org/1999/xlink" width="17.118" height="21.067" viewBox="0 0 17.118 21.067"><defs><style>.a{fill:none;}.b{clip-path:url(#a);}</style><clipPath id="a"><rect class="a" width="21.067" height="17.118"/></clipPath></defs><g class="b" transform="translate(17.118) rotate(90)"><path d="M18.93,4.343v.611A12.213,12.213,0,0,1,6.615,17.166,12.213,12.213,0,0,1,0,15.232H1.018A8.651,8.651,0,0,0,6.412,13.4a4.376,4.376,0,0,1-4.071-2.951H4.274A4.274,4.274,0,0,1,.814,6.175h0a4.376,4.376,0,0,0,1.934.509A4.376,4.376,0,0,1,1.425.882,12.314,12.314,0,0,0,10.381,5.36a4.885,4.885,0,0,1-.1-1.018,4.274,4.274,0,0,1,7.429-2.951A8.549,8.549,0,0,0,20.456.374a4.274,4.274,0,0,1-1.934,2.341A8.651,8.651,0,0,0,21.067,2.1,9.261,9.261,0,0,1,18.93,4.343" transform="translate(0 -0.068)"/></g></svg>